<svg width="24" height="24" viewBox="0 0 24 24" fill="none" xmlns="http://www.w3.org/2000/svg">
<path fill-rule="evenodd" clip-rule="evenodd" d="M0 3C0 2.44772 0.447715 2 1 2H2.55848C3.84977 2 4.99619 2.82629 5.40453 4.05132L5.72076 5H20.2251C22.2728 5 23.7187 7.00609 23.0712 8.94868L21.4045 13.9487C20.9962 15.1737 19.8498 16 18.5585 16H9.44152C8.15023 16 7.00381 15.1737 6.59547 13.9487L3.50716 4.68377C3.37105 4.27543 2.98891 4 2.55848 4H1C0.447715 4 0 3.55228 0 3ZM6.38743 7L8.49284 13.3162C8.62895 13.7246 9.01109 14 9.44152 14H18.5585C18.9889 14 19.371 13.7246 19.5072 13.3162L21.1738 8.31623C21.3897 7.6687 20.9077 7 20.2251 7H6.38743Z" fill="black"/>
<path fill-rule="evenodd" clip-rule="evenodd" d="M19 19C18.4477 19 18 19.4477 18 20C18 20.5523 18.4477 21 19 21C19.5523 21 20 20.5523 20 20C20 19.4477 19.5523 19 19 19ZM16 20C16 18.3431 17.3431 17 19 17C20.6569 17 22 18.3431 22 20C22 21.6569 20.6569 23 19 23C17.3431 23 16 21.6569 16 20Z" fill="black"/>
<path fill-rule="evenodd" clip-rule="evenodd" d="M9 19C8.44772 19 8 19.4477 8 20C8 20.5523 8.44772 21 9 21C9.55228 21 10 20.5523 10 20C10 19.4477 9.55228 19 9 19ZM6 20C6 18.3431 7.34315 17 9 17C10.6569 17 12 18.3431 12 20C12 21.6569 10.6569 23 9 23C7.34315 23 6 21.6569 6 20Z" fill="black"/>
</svg>
